<?xml version="1.0" standalone="no"?>
<!DOCTYPE svg PUBLIC "-//W3C//DTD SVG 20010904//EN"
 "http://www.w3.org/TR/2001/REC-SVG-20010904/DTD/svg10.dtd">
<svg version="1.0" xmlns="http://www.w3.org/2000/svg"
 width="300.000000pt" height="200.000000pt" viewBox="0 0 300.000000 200.000000"
 preserveAspectRatio="xMidYMid meet">
<metadata>
Created by potrace 1.10, written by Peter Selinger 2001-2011
</metadata>
<g transform="translate(0.000000,200.000000) scale(0.050000,-0.050000)"
fill="#000000" stroke="none">
<path d="M719 3468 c-225 -150 -422 -286 -439 -303 -17 -18 -4 -14 30 8 33 22
232 154 442 294 l382 254 671 -5 c369 -4 667 1 662 9 -5 8 -309 15 -674 15
l-665 0 -409 -272z"/>
<path d="M4572 3442 l-298 -299 293 -146 293 -146 0 -1296 0 -1295 440 0 440
0 0 1740 0 1740 -435 0 -436 0 -297 -298z m1148 -1442 l0 -1720 -420 0 -420 0
0 1290 0 1290 -290 145 -290 144 285 286 284 285 426 0 425 0 0 -1720z"/>
<path d="M2488 3660 c16 -60 118 -281 125 -273 5 4 -24 74 -63 155 -39 82 -67
135 -62 118z"/>
<path d="M2707 3158 c19 -64 260 -598 266 -591 8 8 -216 528 -251 584 -15 24
-21 27 -15 7z"/>
<path d="M1660 3085 c17 -6 68 -27 115 -47 47 -20 85 -32 85 -26 0 16 -166 87
-200 86 -27 -1 -27 -2 0 -13z"/>
<path d="M1891 2984 c10 -9 61 -49 113 -90 51 -41 136 -142 188 -224 52 -82
98 -146 103 -142 36 36 -334 472 -401 472 -14 0 -15 -6 -3 -16z"/>
<path d="M3969 2811 c-16 -39 -42 -104 -59 -143 -16 -40 -30 -79 -29 -85 2
-23 99 183 99 210 0 61 63 44 321 -83 186 -93 272 -145 265 -163 -6 -15 -6
-27 0 -27 5 0 15 14 21 30 9 23 -62 67 -288 181 l-301 150 -29 -70z"/>
<path d="M1120 1560 l0 -1301 445 6 445 5 0 1290 0 1290 -445 5 -445 6 0
-1301z m880 0 l0 -1280 -430 0 -430 0 0 1280 0 1280 430 0 430 0 0 -1280z"/>
<path d="M3860 2558 c0 -4 -27 -75 -60 -156 -34 -81 -57 -151 -53 -156 4 -4
36 62 70 147 35 84 58 158 53 164 -6 5 -10 6 -10 1z"/>
<path d="M2982 2528 c31 -87 345 -787 351 -782 9 9 -320 768 -342 789 -9 8
-13 5 -9 -7z"/>
<path d="M2470 2163 c95 -191 177 -343 182 -338 10 10 -305 634 -336 665 -11
11 58 -136 154 -327z"/>
<path d="M4479 2378 c-34 -67 -58 -125 -54 -129 4 -4 36 50 71 122 35 71 59
129 54 129 -5 0 -37 -55 -71 -122z"/>
<path d="M3695 2157 c-15 -37 -76 -186 -136 -332 -120 -296 -122 -298 -168
-183 -18 46 -37 78 -43 72 -6 -5 13 -58 43 -116 l53 -105 30 68 c139 327 265
647 257 654 -5 5 -21 -21 -36 -58z"/>
<path d="M4319 2058 c-45 -89 -78 -165 -74 -169 4 -4 45 69 91 162 46 93 79
169 74 169 -5 0 -46 -73 -91 -162z"/>
<path d="M4139 1698 c-45 -89 -78 -165 -74 -169 4 -4 45 69 91 162 46 93 79
169 74 169 -5 0 -46 -73 -91 -162z"/>
<path d="M2660 1790 c0 -23 163 -334 171 -326 9 9 -148 336 -162 336 -5 0 -9
-5 -9 -10z"/>
<path d="M3979 1378 c-34 -67 -58 -125 -54 -129 4 -4 36 50 71 122 35 71 59
129 54 129 -5 0 -37 -55 -71 -122z"/>
<path d="M2840 1433 c0 -39 584 -1173 599 -1163 25 15 83 134 72 146 -5 5 -25
-24 -44 -64 l-35 -72 -284 571 c-268 539 -308 615 -308 582z"/>
<path d="M3799 1018 c-34 -67 -58 -125 -54 -129 4 -4 36 50 71 122 35 71 59
129 54 129 -5 0 -37 -55 -71 -122z"/>
<path d="M3621 663 c-83 -166 -77 -184 9 -24 38 70 66 132 61 137 -5 4 -36
-47 -70 -113z"/>
</g>
</svg>
